<svg width="429" height="95" viewBox="0 0 429 95" fill="none" xmlns="http://www.w3.org/2000/svg">
<path fill-rule="evenodd" clip-rule="evenodd" d="M429 95L414.667 86.2037C400.333 77.4074 371.667 59.8148 343 58.0555C314.333 56.2963 285.667 70.3704 257 66.8518C228.333 63.3333 199.667 42.2222 171 43.9815C142.333 45.7407 113.667 70.3704 85 75.6481C56.3333 80.9259 27.6666 66.8518 13.3333 59.8148L-1.00002 52.7778V-1.13249e-05H13.3333C27.6666 -1.13249e-05 56.3333 -1.13249e-05 85 -1.13249e-05C113.667 -1.13249e-05 142.333 -1.13249e-05 171 -1.13249e-05C199.667 -1.13249e-05 228.333 -1.13249e-05 257 -1.13249e-05C285.667 -1.13249e-05 314.333 -1.13249e-05 343 -1.13249e-05C371.667 -1.13249e-05 400.333 -1.13249e-05 414.667 -1.13249e-05H429V95Z" fill="#6B03A4"/>
</svg>
