<svg width="201" height="197" viewBox="0 0 201 197" fill="none" xmlns="http://www.w3.org/2000/svg">
<path fill-rule="evenodd" clip-rule="evenodd" d="M106.28 0.620114C127.532 1.31018 150.203 1.60583 166.859 14.2512C183.226 26.6779 187.903 47.6377 193.554 66.8811C198.971 85.3262 202.412 103.904 198.717 122.734C194.583 143.793 188.693 166.117 171.403 179.742C153.682 193.705 129.126 197.747 106.28 195.572C84.7904 193.525 67.6888 179.945 49.9412 168.176C31.7312 156.101 8.8879 146.558 1.99173 126.417C-4.90832 106.264 7.77927 85.689 14.8137 65.5785C21.776 45.6742 25.0189 22.7297 42.6367 10.2177C60.3123 -2.33539 84.2771 -0.0942999 106.28 0.620114Z" fill="#F5CF05"/>
<path d="M104.85 48.5397C111.918 48.5397 114.241 49.9184 117.183 51.6642C120.937 53.8928 125.192 56.4191 135.895 56.4346V69.0792C127.407 69.0792 124.646 67.3616 121.723 65.5413C118.585 63.59 115.028 61.3769 107.437 61.3769C106.591 61.3769 105.707 61.4796 104.85 61.7517V48.5397ZM99.6761 114.292V120.428C99.6761 130.184 97.5314 135.833 86.5753 135.833C71.2185 135.833 71.2185 129.897 71.2185 125.563C71.2185 122.13 71.2185 117.861 86.7408 117.861C92.8566 117.861 96.9519 116.407 99.6761 114.292ZM104.85 43.4048C100.711 43.4048 99.6761 45.9722 99.6761 48.5397V102.456C99.6761 108.14 97.0037 112.726 86.7408 112.726C72.0955 112.726 66.0444 116.484 66.0444 125.563C66.0444 131.681 67.3095 140.968 86.5753 140.968C104.475 140.968 104.85 127.314 104.85 120.428C104.85 117.791 104.85 110.407 104.85 102.456V71.6466C104.863 68.1678 105.368 66.5118 107.437 66.5118C120.73 66.5118 117.452 74.2141 135.895 74.2141C135.895 74.2141 141.069 74.2141 141.069 69.852C141.069 63.2922 141.069 58.6503 141.069 56.1598C141.069 52.2239 139.289 51.2997 135.993 51.2997C117.591 51.3022 122.116 43.4048 104.85 43.4048Z" fill="#47026C"/>
</svg>
