<svg width="455" height="217" viewBox="0 0 455 217" fill="none" xmlns="http://www.w3.org/2000/svg">
<path fill-rule="evenodd" clip-rule="evenodd" d="M106.28 0.620114C127.532 1.31018 150.203 1.60583 166.859 14.2512C183.226 26.6779 187.903 47.6377 193.554 66.8811C198.971 85.3262 202.412 103.904 198.717 122.734C194.583 143.793 188.693 166.117 171.403 179.742C153.682 193.705 129.126 197.747 106.28 195.572C84.7904 193.525 67.6888 179.945 49.9412 168.176C31.7312 156.101 8.8879 146.558 1.99173 126.417C-4.90832 106.264 7.77927 85.689 14.8137 65.5785C21.776 45.6742 25.0189 22.7297 42.6367 10.2177C60.3123 -2.33539 84.2771 -0.0942999 106.28 0.620114Z" fill="#F5CF05"/>
<path d="M93.8043 35.6949C100.872 35.6949 103.195 37.0737 106.137 38.8195C109.891 41.0481 114.146 43.5744 124.849 43.5898V56.2345C116.361 56.2345 113.6 54.5169 110.677 52.6965C107.539 50.7453 103.982 48.5322 96.3914 48.5322C95.5454 48.5322 94.6606 48.6348 93.8043 48.907V35.6949ZM88.6302 101.447V107.583C88.6302 117.34 86.4855 122.988 75.5294 122.988C60.1726 122.988 60.1726 117.052 60.1726 112.718C60.1726 109.286 60.1726 105.016 75.695 105.016C81.8107 105.016 85.906 103.563 88.6302 101.447ZM93.8043 30.5601C89.665 30.5601 88.6302 33.1275 88.6302 35.6949V89.6112C88.6302 95.2955 85.9578 99.881 75.695 99.881C61.0497 99.881 54.9985 103.64 54.9985 112.718C54.9985 118.836 56.2636 128.123 75.5294 128.123C93.4292 128.123 93.8043 114.469 93.8043 107.583C93.8043 104.947 93.8043 97.5626 93.8043 89.6112V58.8019C93.8172 55.323 94.3217 53.667 96.3914 53.667C109.684 53.667 106.406 61.3694 124.849 61.3694C124.849 61.3694 130.023 61.3694 130.023 57.0073C130.023 50.4475 130.023 45.8055 130.023 43.3151C130.023 39.3792 128.243 38.4549 124.947 38.4549C106.546 38.4575 111.07 30.5601 93.8043 30.5601Z" fill="#47026C"/>
<path d="M129.251 139.387C124.263 139.645 120.221 139.258 117.125 138.226C114.029 137.108 111.664 135.646 110.03 133.84C108.396 131.948 107.321 129.755 106.805 127.261C106.375 124.767 106.289 122.23 106.547 119.65C107.149 113.544 109.514 106.535 113.642 98.623C116.824 92.947 120.092 88.045 123.446 83.917C126.886 79.789 130.283 76.263 133.637 73.339C136.991 70.329 140.259 67.878 143.441 65.986C146.623 64.008 149.633 62.46 152.471 61.342C159.093 58.676 165.629 57.515 172.079 57.859H172.208C172.294 57.859 172.552 57.902 172.982 57.988C173.412 58.074 173.928 58.203 174.53 58.375C175.39 58.633 176.336 59.149 177.368 59.923C178.4 60.697 179.26 61.901 179.948 63.535C180.034 63.707 180.12 63.965 180.206 64.309C180.292 64.653 180.378 65.083 180.464 65.599C180.894 65.427 181.367 65.298 181.883 65.212C182.399 65.126 182.872 64.997 183.302 64.825C185.796 64.309 188.591 63.793 191.687 63.277C194.783 62.675 197.879 62.159 200.975 61.729C204.071 61.299 207.081 60.869 210.005 60.439C212.929 60.009 215.466 59.665 217.616 59.407C228.108 58.289 237.224 56.87 244.964 55.15C252.79 53.43 259.412 51.624 264.83 49.732C270.334 47.84 274.806 45.905 278.246 43.927C281.772 41.949 284.524 40.1 286.502 38.38C288.566 36.66 289.985 35.155 290.759 33.865C291.533 32.489 292.006 31.457 292.178 30.769C292.178 30.339 292.135 30.038 292.049 29.866C292.049 29.694 292.092 29.522 292.178 29.35C292.264 29.178 292.522 29.178 292.952 29.35C293.64 29.436 294.328 29.78 295.016 30.382C295.188 30.554 295.403 30.898 295.661 31.414C296.005 31.93 296.263 32.618 296.435 33.478C296.693 34.252 296.779 35.198 296.693 36.316C296.693 37.434 296.392 38.638 295.79 39.928C295.188 41.304 293.941 43.153 292.049 45.475C290.157 47.711 286.932 50.033 282.374 52.441C277.816 54.849 271.581 57.171 263.669 59.407C255.757 61.557 245.48 63.277 232.838 64.567C231.548 64.739 229.484 64.997 226.646 65.341C223.808 65.599 220.712 65.943 217.358 66.373C214.004 66.717 210.65 67.104 207.296 67.534C203.942 67.878 201.104 68.179 198.782 68.437C195.514 68.867 192.289 69.34 189.107 69.856C186.011 70.372 183.13 70.931 180.464 71.533C180.12 73.253 179.733 74.93 179.303 76.564C178.959 78.198 178.443 79.875 177.755 81.595C177.669 82.197 177.411 82.885 176.981 83.659C175.347 87.271 173.541 89.808 171.563 91.27C169.671 92.646 167.865 93.506 166.145 93.85C165.027 94.108 163.952 94.151 162.92 93.979H162.404C162.404 93.893 162.232 93.85 161.888 93.85C161.544 93.678 161.243 93.592 160.985 93.592C160.727 93.506 160.512 93.42 160.34 93.334C158.878 92.302 157.588 91.098 156.47 89.722C155.352 88.26 154.664 86.669 154.406 84.949C154.234 83.143 154.578 81.294 155.438 79.402C156.298 77.51 157.932 75.618 160.34 73.726C161.802 72.608 163.522 71.576 165.5 70.63C167.564 69.684 169.8 68.781 172.208 67.921C172.122 66.373 171.864 64.997 171.434 63.793C171.09 62.503 170.316 61.643 169.112 61.213C165.242 62.073 161.071 63.836 156.599 66.502C152.729 68.738 148.343 72.049 143.441 76.435C138.625 80.821 133.594 86.841 128.348 94.495C123.102 102.149 119.662 108.599 118.028 113.845C116.48 119.005 116.179 123.176 117.125 126.358C118.071 129.54 120.006 131.733 122.93 132.937C125.94 134.055 129.337 134.356 133.121 133.84C135.873 133.41 138.582 132.55 141.248 131.26C144 129.97 146.623 128.465 149.117 126.745C149.289 126.401 149.418 126.186 149.504 126.1C152.256 121.714 154.277 117.887 155.567 114.619C156.857 111.351 157.674 108.556 158.018 106.234C158.362 103.912 158.362 102.02 158.018 100.558C157.76 99.01 157.416 97.849 156.986 97.075L157.631 96.43C160.985 98.15 163.522 99.913 165.242 101.719C166.962 103.439 167.994 105.331 168.338 107.395C168.682 109.373 168.381 111.609 167.435 114.103C166.489 116.511 165.027 119.263 163.049 122.359C162.275 123.563 161.372 125.068 160.34 126.874C159.308 128.594 158.147 130.443 156.857 132.421C155.653 134.313 154.406 136.248 153.116 138.226C151.912 140.204 150.751 141.967 149.633 143.515C149.547 143.601 149.504 143.644 149.504 143.644C149.504 143.73 149.418 143.859 149.246 144.031C154.922 142.999 160.985 142.182 167.435 141.58C173.971 141.064 180.808 140.978 187.946 141.322C192.074 141.58 195.471 142.096 198.137 142.87C200.803 143.644 202.996 144.504 204.716 145.45C206.092 146.138 207.253 146.955 208.199 147.901C208.199 147.987 208.242 148.073 208.328 148.159C208.5 148.245 208.672 148.374 208.844 148.546V148.675C209.274 149.105 209.661 149.75 210.005 150.61C210.435 151.556 210.736 152.717 210.908 154.093C210.822 154.523 210.779 155.082 210.779 155.77C210.607 156.716 210.392 157.533 210.134 158.221C209.876 158.995 209.575 159.683 209.231 160.285C208.887 160.973 208.5 161.575 208.07 162.091C208.414 163.037 208.543 163.983 208.457 164.929C208.371 165.703 208.113 166.52 207.683 167.38C207.339 168.24 206.651 168.885 205.619 169.315C204.157 169.917 202.867 170.218 201.749 170.218C200.631 170.304 199.685 170.261 198.911 170.089C197.965 169.917 197.191 169.616 196.589 169.186C198.137 168.67 199.556 168.025 200.846 167.251C201.964 166.649 202.953 165.918 203.813 165.058C204.673 164.198 205.103 163.295 205.103 162.349C205.103 162.263 205.146 162.177 205.232 162.091C205.06 161.145 204.587 160.113 203.813 158.995C203.125 158.049 202.007 157.06 200.459 156.028C198.997 154.996 197.019 154.05 194.525 153.19V153.319C190.397 152.029 185.968 151.212 181.238 150.868C176.594 150.524 171.95 150.481 167.306 150.739C162.662 150.997 158.19 151.427 153.89 152.029C149.59 152.717 145.763 153.405 142.409 154.093C139.227 158.479 135.701 163.08 131.831 167.896C128.047 172.798 123.962 177.571 119.576 182.215C115.276 186.859 110.718 191.245 105.902 195.373C101.172 199.587 96.313 203.242 91.325 206.338C86.337 209.52 81.306 211.971 76.232 213.691C71.072 215.411 65.912 216.185 60.752 216.013C58.43 215.153 56.882 213.949 56.108 212.401C55.334 210.853 55.119 209.047 55.463 206.983C55.721 205.005 56.409 202.898 57.527 200.662C58.645 198.426 59.978 196.19 61.526 193.954C63.332 191.46 65.31 189.009 67.46 186.601C69.61 184.193 71.588 182.086 73.394 180.28C77.006 176.926 80.618 173.959 84.23 171.379C87.756 168.799 90.68 166.778 93.002 165.316C96.098 163.338 99.366 161.446 102.806 159.64C106.246 157.92 109.901 156.243 113.771 154.609C114.631 154.179 117.125 153.147 121.253 151.513C125.467 149.965 130.885 148.331 137.507 146.611C138.539 144.977 139.528 143.386 140.474 141.838C141.334 140.462 142.237 139.043 143.183 137.581C144.215 136.033 145.118 134.614 145.892 133.324C143.226 135.044 140.474 136.463 137.636 137.581C134.798 138.699 132.003 139.301 129.251 139.387ZM60.881 211.756C61.913 211.584 63.461 211.369 65.525 211.111C67.503 210.939 69.954 210.337 72.878 209.305C75.802 208.273 79.242 206.682 83.198 204.532C87.068 202.382 91.411 199.286 96.227 195.244C100.957 191.288 106.16 186.214 111.836 180.022C117.512 173.83 123.618 166.176 130.154 157.06C124.22 158.78 118.028 160.93 111.578 163.51C105.214 166.09 98.979 169.272 92.873 173.056C86.681 176.926 80.876 181.441 75.458 186.601C70.04 191.761 65.396 197.738 61.526 204.532C60.236 206.854 59.505 208.66 59.333 209.95C59.161 211.326 59.677 211.928 60.881 211.756ZM171.176 74.242C167.22 75.618 164.081 77.08 161.759 78.628C161.415 78.886 160.942 79.316 160.34 79.918C159.824 80.52 159.394 81.251 159.05 82.111C158.792 82.971 158.706 83.96 158.792 85.078C158.964 86.196 159.609 87.443 160.727 88.819C160.813 88.905 160.985 89.077 161.243 89.335C161.501 89.507 161.759 89.636 162.017 89.722C162.361 89.722 162.748 89.679 163.178 89.593C163.608 89.421 164.038 89.077 164.468 88.561C164.554 88.389 164.64 88.26 164.726 88.174C164.812 88.002 164.898 87.83 164.984 87.658C166.446 85.594 167.693 83.444 168.725 81.208C169.757 78.886 170.574 76.564 171.176 74.242ZM194.179 133.969C196.415 132.765 198.651 131.174 200.887 129.196C203.123 127.132 205.101 125.111 206.821 123.133H209.272C207.724 125.025 206.133 126.788 204.499 128.422C202.951 130.056 201.403 131.518 199.855 132.808C198.393 134.098 197.017 135.259 195.727 136.291C194.523 137.237 193.534 138.011 192.76 138.613C192.072 139.043 191.47 139.215 190.954 139.129C190.438 139.043 190.094 138.957 189.922 138.871C189.062 138.269 188.116 137.624 187.084 136.936C186.052 136.162 185.45 135.646 185.278 135.388C185.02 135.216 184.891 134.786 184.891 134.098V133.195C185.149 130.787 185.622 128.25 186.31 125.584C183.3 130.916 180.849 134.614 178.957 136.678C177.065 138.742 175.603 139.989 174.571 140.419C174.141 140.591 173.668 140.677 173.152 140.677L172.636 140.419C172.378 140.333 172.12 140.161 171.862 139.903C171.002 139.387 170.099 138.57 169.153 137.452C168.121 136.334 167.519 135.646 167.347 135.388C167.089 135.216 166.96 134.786 166.96 134.098V133.195C167.562 128.379 168.637 123.993 170.185 120.037C171.733 115.995 173.324 112.598 174.958 109.846C175.044 109.674 175.173 109.459 175.345 109.201C175.517 109.029 175.646 108.814 175.732 108.556C175.904 108.298 176.076 107.997 176.248 107.653C177.194 106.277 177.796 105.159 178.054 104.299C178.312 103.353 178.441 102.665 178.441 102.235C178.441 102.149 178.527 102.02 178.699 101.848H179.215L181.021 103.009H181.15C182.01 103.611 182.913 104.17 183.859 104.686C184.203 104.944 184.633 105.46 185.149 106.234C185.665 107.008 185.622 107.997 185.02 109.201C183.73 111.265 182.612 113.415 181.666 115.651C180.72 117.887 179.903 120.037 179.215 122.101C178.527 124.165 177.968 126.1 177.538 127.906C177.108 129.626 176.764 131.002 176.506 132.034V132.292C176.42 132.464 176.377 132.722 176.377 133.066C176.377 133.324 176.463 133.539 176.635 133.711C176.979 133.969 177.495 133.754 178.183 133.066C178.957 132.292 179.817 131.217 180.763 129.841C181.795 128.465 182.87 126.917 183.988 125.197C185.106 123.477 186.181 121.757 187.213 120.037C188.245 118.231 189.148 116.597 189.922 115.135C190.782 113.673 191.47 112.512 191.986 111.652C192.072 111.222 192.287 110.835 192.631 110.491V110.362C192.803 110.19 192.889 110.018 192.889 109.846C193.319 109.158 193.749 108.427 194.179 107.653C194.953 106.363 196.071 104.858 197.533 103.138C197.619 103.052 197.748 102.966 197.92 102.88C198.178 102.708 198.479 102.708 198.823 102.88C198.823 102.88 198.909 102.923 199.081 103.009H199.21C199.64 103.267 200.07 103.568 200.5 103.912C200.93 104.17 201.36 104.428 201.79 104.686C202.22 104.944 202.65 105.46 203.08 106.234C203.596 107.008 203.596 107.997 203.08 109.201C201.36 111.867 199.941 114.619 198.823 117.457C197.705 120.295 196.802 122.961 196.114 125.455C195.254 128.293 194.609 131.131 194.179 133.969ZM238.425 123.52C238.339 123.52 238.296 123.563 238.296 123.649C237.952 123.993 237.608 124.294 237.264 124.552C237.006 124.724 236.705 124.982 236.361 125.326C235.157 126.444 233.394 127.992 231.072 129.97C228.75 131.862 226.299 133.711 223.719 135.517C221.139 137.323 218.559 138.828 215.979 140.032C213.485 141.322 211.421 141.838 209.787 141.58C209.701 141.494 209.615 141.451 209.529 141.451C208.067 140.677 206.949 139.774 206.175 138.742C205.315 137.624 204.756 136.807 204.498 136.291C204.154 135.775 203.982 135.13 203.982 134.356C203.896 133.582 203.896 132.851 203.982 132.163C204.068 131.303 204.197 130.443 204.369 129.583C205.573 125.455 207.422 121.585 209.916 117.973C212.41 114.361 215.291 111.093 218.559 108.169C221.225 105.675 223.547 104.041 225.525 103.267C227.589 102.493 229.438 102.364 231.072 102.88C232.276 103.31 233.394 103.912 234.426 104.686C235.458 105.46 236.189 106.191 236.619 106.879C237.049 107.481 237.178 108.341 237.006 109.459C236.92 110.577 236.662 111.351 236.232 111.781C235.974 112.211 235.673 112.598 235.329 112.942C234.985 113.286 234.598 113.63 234.168 113.974C233.91 114.146 233.308 114.576 232.362 115.264C231.502 115.866 230.341 116.597 228.879 117.457C227.417 118.317 225.654 119.22 223.59 120.166C221.526 121.026 219.161 121.843 216.495 122.617C215.291 124.251 213.872 126.401 212.238 129.067C210.69 131.647 209.658 134.27 209.142 136.936C210.432 137.796 212.152 137.882 214.302 137.194C216.452 136.506 218.817 135.431 221.397 133.969C223.977 132.507 226.557 130.83 229.137 128.938C231.803 126.96 234.254 125.154 236.49 123.52H238.425ZM226.686 111.265C226.17 111.695 225.181 112.598 223.719 113.974C222.343 115.35 220.666 117.242 218.688 119.65C221.354 118.618 224.063 117.242 226.815 115.522C229.567 113.716 232.018 111.437 234.168 108.685C233.566 108.513 232.921 108.513 232.233 108.685C231.631 108.771 231.201 108.857 230.943 108.943C229.653 109.201 228.234 109.975 226.686 111.265ZM257.707 117.844C256.417 118.188 255.084 118.618 253.708 119.134C252.504 119.564 251.171 120.123 249.709 120.811C248.247 121.413 246.742 122.058 245.194 122.746C245.108 124.982 244.936 127.347 244.678 129.841C244.506 132.249 244.119 134.528 243.517 136.678C243.001 138.828 242.184 140.72 241.066 142.354C240.034 143.988 238.615 145.106 236.809 145.708C236.465 145.88 235.992 145.966 235.39 145.966C234.874 145.966 234.229 145.923 233.455 145.837C232.595 145.751 231.606 145.493 230.488 145.063C228.338 144.375 226.661 143.042 225.457 141.064C224.167 139.086 224.167 136.807 225.457 134.227C225.973 133.195 226.833 132.034 228.037 130.744C229.241 129.454 230.703 128.164 232.423 126.874C233.025 126.444 233.67 125.971 234.358 125.455C235.046 124.853 235.734 124.337 236.422 123.907C236.422 123.735 236.422 123.563 236.422 123.391C236.336 123.219 236.336 122.961 236.422 122.617C236.25 120.811 236.207 118.919 236.293 116.941C236.379 114.877 236.637 112.899 237.067 111.007C237.497 109.029 238.185 107.18 239.131 105.46C240.077 103.74 241.367 102.235 243.001 100.945C244.721 99.397 246.656 98.58 248.806 98.494C250.096 98.408 251.472 98.494 252.934 98.752C254.482 99.01 255.643 99.354 256.417 99.784C257.105 100.128 257.664 100.73 258.094 101.59C258.61 102.45 258.782 103.138 258.61 103.654C258.266 104.944 257.492 106.191 256.288 107.395C255.17 108.513 254.138 109.416 253.192 110.104L252.805 109.846C254.095 107.524 254.74 105.675 254.74 104.299C254.826 102.837 254.869 101.977 254.869 101.719C252.891 102.063 251.3 102.88 250.096 104.17C248.892 105.46 247.946 107.008 247.258 108.814C246.57 110.534 246.097 112.426 245.839 114.49C245.581 116.468 245.409 118.36 245.323 120.166C246.871 119.564 248.548 119.005 250.354 118.489C252.246 117.973 254.138 117.5 256.03 117.07C256.46 116.898 256.847 116.769 257.191 116.683C257.621 116.597 258.051 116.554 258.481 116.554C258.481 116.554 258.524 116.511 258.61 116.425L257.707 117.844ZM228.682 141.967C229.542 142.053 230.402 141.709 231.262 140.935C232.122 140.247 232.896 139.301 233.584 138.097C234.186 136.807 234.745 135.345 235.261 133.711C235.691 131.991 235.992 130.228 236.164 128.422C235.476 129.024 234.831 129.626 234.229 130.228C233.541 130.83 232.982 131.432 232.552 132.034C231.348 133.496 230.488 134.829 229.972 136.033C229.37 137.151 228.983 138.183 228.811 139.129C228.553 140.161 228.51 141.107 228.682 141.967ZM274.462 117.844C273.172 118.188 271.839 118.618 270.463 119.134C269.259 119.564 267.926 120.123 266.464 120.811C265.002 121.413 263.497 122.058 261.949 122.746C261.863 124.982 261.691 127.347 261.433 129.841C261.261 132.249 260.874 134.528 260.272 136.678C259.756 138.828 258.939 140.72 257.821 142.354C256.789 143.988 255.37 145.106 253.564 145.708C253.22 145.88 252.747 145.966 252.145 145.966C251.629 145.966 250.984 145.923 250.21 145.837C249.35 145.751 248.361 145.493 247.243 145.063C245.093 144.375 243.416 143.042 242.212 141.064C240.922 139.086 240.922 136.807 242.212 134.227C242.728 133.195 243.588 132.034 244.792 130.744C245.996 129.454 247.458 128.164 249.178 126.874C249.78 126.444 250.425 125.971 251.113 125.455C251.801 124.853 252.489 124.337 253.177 123.907C253.177 123.735 253.177 123.563 253.177 123.391C253.091 123.219 253.091 122.961 253.177 122.617C253.005 120.811 252.962 118.919 253.048 116.941C253.134 114.877 253.392 112.899 253.822 111.007C254.252 109.029 254.94 107.18 255.886 105.46C256.832 103.74 258.122 102.235 259.756 100.945C261.476 99.397 263.411 98.58 265.561 98.494C266.851 98.408 268.227 98.494 269.689 98.752C271.237 99.01 272.398 99.354 273.172 99.784C273.86 100.128 274.419 100.73 274.849 101.59C275.365 102.45 275.537 103.138 275.365 103.654C275.021 104.944 274.247 106.191 273.043 107.395C271.925 108.513 270.893 109.416 269.947 110.104L269.56 109.846C270.85 107.524 271.495 105.675 271.495 104.299C271.581 102.837 271.624 101.977 271.624 101.719C269.646 102.063 268.055 102.88 266.851 104.17C265.647 105.46 264.701 107.008 264.013 108.814C263.325 110.534 262.852 112.426 262.594 114.49C262.336 116.468 262.164 118.36 262.078 120.166C263.626 119.564 265.303 119.005 267.109 118.489C269.001 117.973 270.893 117.5 272.785 117.07C273.215 116.898 273.602 116.769 273.946 116.683C274.376 116.597 274.806 116.554 275.236 116.554C275.236 116.554 275.279 116.511 275.365 116.425L274.462 117.844ZM245.437 141.967C246.297 142.053 247.157 141.709 248.017 140.935C248.877 140.247 249.651 139.301 250.339 138.097C250.941 136.807 251.5 135.345 252.016 133.711C252.446 131.991 252.747 130.228 252.919 128.422C252.231 129.024 251.586 129.626 250.984 130.228C250.296 130.83 249.737 131.432 249.307 132.034C248.103 133.496 247.243 134.829 246.727 136.033C246.125 137.151 245.738 138.183 245.566 139.129C245.308 140.161 245.265 141.107 245.437 141.967ZM325.496 104.686C325.84 104.944 326.227 105.46 326.657 106.234C327.087 107.008 326.958 107.997 326.27 109.201C324.292 111.867 322.615 114.619 321.239 117.457C319.949 120.295 318.831 122.961 317.885 125.455C316.853 128.293 315.95 131.131 315.176 133.969C317.498 132.765 319.863 131.217 322.271 129.325C324.679 127.433 326.872 125.498 328.85 123.52H331.301C327.861 127.304 324.421 130.486 320.981 133.066C317.627 135.56 315.133 137.409 313.499 138.613C312.725 139.043 312.08 139.215 311.564 139.129C311.048 139.043 310.704 138.957 310.532 138.871C309.844 138.269 309.027 137.624 308.081 136.936C307.049 136.162 306.447 135.646 306.275 135.388C305.931 135.044 305.845 134.614 306.017 134.098C306.017 133.754 306.103 133.453 306.275 133.195C307.221 128.379 308.64 123.993 310.532 120.037C312.424 115.995 314.316 112.598 316.208 109.846C316.638 109.158 317.111 108.427 317.627 107.653C318.057 106.965 318.616 106.277 319.304 105.589C319.992 104.815 320.723 103.998 321.497 103.138C321.583 103.052 321.712 102.966 321.884 102.88C322.056 102.708 322.314 102.708 322.658 102.88C322.744 102.88 322.83 102.923 322.916 103.009H323.045C323.389 103.267 323.776 103.568 324.206 103.912C324.636 104.17 325.066 104.428 325.496 104.686ZM340.331 89.98C339.815 90.668 338.998 91.528 337.88 92.56C336.762 93.506 335.601 94.452 334.397 95.398C333.279 96.258 332.161 96.989 331.043 97.591C329.925 98.193 329.108 98.408 328.592 98.236C328.076 98.236 327.904 97.978 328.076 97.462C328.248 96 328.506 94.624 328.85 93.334C329.108 92.216 329.452 91.141 329.882 90.109C330.398 89.077 331.043 88.346 331.817 87.916C332.591 87.486 333.58 87.228 334.784 87.142C335.988 86.97 337.106 87.013 338.138 87.271C339.17 87.443 339.944 87.744 340.46 88.174C340.976 88.604 340.933 89.206 340.331 89.98ZM449.894 82.24C449.636 81.122 448.862 79.961 447.572 78.757C446.368 77.467 444.39 76.263 441.638 75.145C438.972 74.027 435.446 73.081 431.06 72.307C426.674 71.533 421.256 71.103 414.806 71.017C408.356 70.845 400.745 71.103 391.973 71.791C383.287 72.479 373.268 73.726 361.916 75.532C357.272 82.67 352.886 90.152 348.758 97.978C344.716 105.804 341.061 113.759 337.793 121.843C337.363 122.789 336.89 123.907 336.374 125.197C335.858 126.401 335.342 127.691 334.826 129.067C334.396 130.357 334.009 131.647 333.665 132.937C333.407 134.227 333.321 135.388 333.407 136.42C334.869 136.678 336.374 136.377 337.922 135.517C339.47 134.657 340.975 133.539 342.437 132.163C343.985 130.787 345.447 129.325 346.823 127.777C348.199 126.229 349.489 124.853 350.693 123.649H352.628C352.628 123.649 352.585 123.692 352.499 123.778C352.241 124.122 351.983 124.423 351.725 124.681C351.467 124.939 351.209 125.24 350.951 125.584C350.005 126.96 348.844 128.594 347.468 130.486C346.178 132.292 344.802 134.012 343.34 135.646C341.878 137.28 340.416 138.613 338.954 139.645C337.578 140.763 336.331 141.236 335.213 141.064C335.213 140.978 335.17 140.935 335.084 140.935C332.59 139.817 330.612 138.14 329.15 135.904C327.774 133.668 327.344 131.045 327.86 128.035C328.29 125.799 328.849 123.348 329.537 120.682C330.225 118.016 330.913 115.866 331.601 114.232C333.665 109.33 336.288 103.654 339.47 97.204C342.738 90.668 346.694 83.745 351.338 76.435C349.102 76.435 347.167 76.435 345.533 76.435C343.985 76.349 342.609 76.22 341.405 76.048C340.287 75.876 339.298 75.661 338.438 75.403C337.664 75.059 336.89 74.672 336.116 74.242C333.45 72.694 331.687 70.931 330.827 68.953C329.967 66.975 329.709 64.997 330.053 63.019C330.483 60.955 331.343 59.02 332.633 57.214C334.009 55.322 335.514 53.731 337.148 52.441L337.664 52.57C336.976 53.258 336.245 54.118 335.471 55.15C334.697 56.182 334.052 57.343 333.536 58.633C333.02 59.837 332.719 61.084 332.633 62.374C332.547 63.664 332.891 64.911 333.665 66.115C334.783 67.749 336.202 68.91 337.922 69.598C339.728 70.2 341.663 70.544 343.727 70.63C345.791 70.716 347.855 70.63 349.919 70.372C352.069 70.114 354.004 69.899 355.724 69.727C356.584 68.351 357.487 67.018 358.433 65.728C359.379 64.438 360.325 63.105 361.271 61.729C367.205 53.387 373.354 46.55 379.718 41.218C386.082 35.8 392.102 31.801 397.778 29.221C403.454 26.555 408.528 25.265 413 25.351C417.472 25.437 420.826 26.77 423.062 29.35L422.417 29.737C420.439 28.619 417.902 28.275 414.806 28.705C413.516 28.877 412.011 29.264 410.291 29.866C408.571 30.382 406.636 31.199 404.486 32.317C402.336 33.435 399.971 34.854 397.391 36.574C394.897 38.294 392.188 40.444 389.264 43.024C385.394 46.378 381.61 50.162 377.912 54.376C374.214 58.59 370.602 63.148 367.076 68.05C369.484 67.706 372.15 67.319 375.074 66.889C377.998 66.373 380.836 65.9 383.588 65.47C386.426 65.04 388.963 64.653 391.199 64.309C393.521 63.965 395.198 63.707 396.23 63.535C404.4 62.159 411.409 61.299 417.257 60.955C423.191 60.525 428.179 60.482 432.221 60.826C436.349 61.17 439.66 61.815 442.154 62.761C444.648 63.621 446.626 64.61 448.088 65.728C449.636 66.76 450.754 67.835 451.442 68.953C452.13 70.071 452.689 71.06 453.119 71.92C453.807 73.382 454.151 74.715 454.151 75.919C454.237 77.123 454.151 78.198 453.893 79.144C453.549 80.176 453.119 81.165 452.603 82.111C452.431 82.455 452.173 82.713 451.829 82.885C451.313 83.315 450.668 83.401 449.894 83.143C450.066 82.885 450.066 82.584 449.894 82.24Z" fill="white"/>
</svg>
