<svg width="98" height="98" viewBox="0 0 98 98" fill="none" xmlns="http://www.w3.org/2000/svg">
<g clip-path="url(#clip0_47_92)">
<path d="M48.9592 8.1665C26.4192 8.1665 8.16675 26.4598 8.16675 48.9998C8.16675 71.5398 26.4192 89.8331 48.9592 89.8331C71.54 89.8331 89.8334 71.5398 89.8334 48.9998C89.8334 26.4598 71.54 8.1665 48.9592 8.1665ZM49.0001 81.6665C30.9517 81.6665 16.3334 67.0481 16.3334 48.9998C16.3334 30.9515 30.9517 16.3332 49.0001 16.3332C67.0484 16.3332 81.6667 30.9515 81.6667 48.9998C81.6667 67.0481 67.0484 81.6665 49.0001 81.6665ZM63.2917 44.9165C66.6809 44.9165 69.4167 42.1807 69.4167 38.7915C69.4167 35.4023 66.6809 32.6665 63.2917 32.6665C59.9026 32.6665 57.1667 35.4023 57.1667 38.7915C57.1667 42.1807 59.9026 44.9165 63.2917 44.9165ZM34.7084 44.9165C38.0976 44.9165 40.8334 42.1807 40.8334 38.7915C40.8334 35.4023 38.0976 32.6665 34.7084 32.6665C31.3192 32.6665 28.5834 35.4023 28.5834 38.7915C28.5834 42.1807 31.3192 44.9165 34.7084 44.9165ZM49.0001 71.4581C57.2892 71.4581 64.5167 66.9256 68.3959 60.229C69.1717 58.8815 68.1917 57.1665 66.5992 57.1665H31.4009C29.8492 57.1665 28.8284 58.8815 29.6042 60.229C33.4834 66.9256 40.7109 71.4581 49.0001 71.4581Z" fill="#47026C"/>
</g>
<defs>
<clipPath id="clip0_47_92">
<rect width="98" height="98" fill="white"/>
</clipPath>
</defs>
</svg>
