<svg width="98" height="98" viewBox="0 0 98 98" fill="none" xmlns="http://www.w3.org/2000/svg">
<g clip-path="url(#clip0_47_120)">
<path d="M48.9998 55.1248C40.7107 55.1248 33.4832 59.6573 29.604 66.354C28.8282 67.7015 29.849 69.4165 31.4007 69.4165H66.599C68.1507 69.4165 69.1715 67.7015 68.3957 66.354C64.5165 59.6573 57.289 55.1248 48.9998 55.1248ZM34.0957 46.8357L36.2598 44.6715L38.424 46.8357C39.6082 48.0198 41.5682 48.0198 42.7523 46.8357C43.9365 45.6515 43.9365 43.6915 42.7523 42.5073L40.5882 40.3432L42.7523 38.179C43.9365 36.9948 43.9365 35.0348 42.7523 33.8507C41.5682 32.6665 39.6082 32.6665 38.424 33.8507L36.2598 36.0148L34.0957 33.8507C32.9115 32.6665 30.9515 32.6665 29.7673 33.8507C28.5832 35.0348 28.5832 36.9948 29.7673 38.179L31.9315 40.3432L29.7673 42.5073C28.5832 43.6915 28.5832 45.6515 29.7673 46.8357C30.9515 48.0198 32.9115 48.0198 34.0957 46.8357ZM48.959 8.1665C26.419 8.1665 8.1665 26.419 8.1665 48.9998C8.1665 71.5807 26.419 89.8332 48.959 89.8332C71.499 89.8332 89.8332 71.5807 89.8332 48.9998C89.8332 26.419 71.5398 8.1665 48.959 8.1665ZM48.9998 81.6665C30.9515 81.6665 16.3332 67.0482 16.3332 48.9998C16.3332 30.9515 30.9515 16.3332 48.9998 16.3332C67.0482 16.3332 81.6665 30.9515 81.6665 48.9998C81.6665 67.0482 67.0482 81.6665 48.9998 81.6665ZM63.904 33.8507L61.7398 36.0148L59.5757 33.8507C58.3915 32.6665 56.4315 32.6665 55.2473 33.8507C54.0632 35.0348 54.0632 36.9948 55.2473 38.179L57.4115 40.3432L55.2473 42.5073C54.0632 43.6915 54.0632 45.6515 55.2473 46.8357C56.4315 48.0198 58.3915 48.0198 59.5757 46.8357L61.7398 44.6715L63.904 46.8357C65.0882 48.0198 67.0482 48.0198 68.2323 46.8357C69.4165 45.6515 69.4165 43.6915 68.2323 42.5073L66.0682 40.3432L68.2323 38.179C69.4165 36.9948 69.4165 35.0348 68.2323 33.8507C67.0482 32.6665 65.0882 32.6665 63.904 33.8507Z" fill="#47026C"/>
</g>
<defs>
<clipPath id="clip0_47_120">
<rect width="98" height="98" fill="white"/>
</clipPath>
</defs>
</svg>
