<svg width="1440" height="82" viewBox="0 0 1440 82" fill="none" xmlns="http://www.w3.org/2000/svg">
<path fill-rule="evenodd" clip-rule="evenodd" d="M0 0L59.5 16C107.5 30.0741 192 44.2963 288 47.1111C384 49.9259 480 27.4074 576 33.037C672 38.6667 768 72.4444 864 69.6296C960 66.8148 1056 27.4074 1152 18.963C1248 10.5185 1344 33.037 1392 44.2963L1440 55.5555V82H1392C1344 82 1248 82 1152 82C1056 82 960 82 864 82C768 82 672 82 576 82C480 82 384 82 288 82C192 82 96 82 48 82H0V55.5555V0Z" fill="#E4AFFF"/>
</svg>
