<svg width="1439" height="95" viewBox="0 0 1439 91" fill="none" xmlns="http://www.w3.org/2000/svg">
<path fill-rule="evenodd" clip-rule="evenodd" d="M0.5 0.5L48.5 14C96.5 28.0741 192.5 56.7963 288.5 59.6111C384.5 62.4259 480.5 39.9074 576.5 45.537C672.5 51.1667 768.5 84.9444 864.5 82.1296C960.5 79.3148 1056.5 39.9074 1152.5 31.463C1248.5 23.0185 1344.5 45.537 1392.5 56.7963L1440.5 68.0555V94.5H1392.5C1344.5 94.5 1248.5 94.5 1152.5 94.5C1056.5 94.5 960.5 94.5 864.5 94.5C768.5 94.5 672.5 94.5 576.5 94.5C480.5 94.5 384.5 94.5 288.5 94.5C192.5 94.5 96.5 94.5 48.5 94.5H0.5V68.0555V0.5Z" fill="#E4AFFF"/>
</svg>
